<svg xmlns="http://www.w3.org/2000/svg" viewBox="0 0 160 90" width="160" height="90">
  <title>Pont de Wien</title>
  <g stroke="#333" stroke-width="1.2" fill="none">
    <path d="M20 20 L20 45 L45 45"/>
    <rect x="45" y="40" width="22" height="10" rx="1"/>
    <path d="M67 45 L90 45 L90 20"/>
    <path d="M90 20 L90 45 L115 45"/>
    <path d="M90 20 L90 12 M85 12 L95 12"/>
    <path d="M20 70 L20 45"/>
    <path d="M20 70 L20 78 M15 78 L25 78"/>
    <path d="M90 70 L90 45"/>
    <path d="M90 70 L90 78 M85 78 L95 78"/>
    <path d="M20 20 L55 20 L55 25 M55 20 L55 15"/>
    <path d="M55 25 L55 15 M52 15 L58 15"/>
    <path d="M55 20 L90 20"/>
    <path d="M125 45 L155 45"/>
    <rect x="115" y="40" width="22" height="10" rx="1"/>
    <path d="M90 45 L115 45"/>
  </g>
  <text x="52" y="55" font-size="8" fill="#666">R1</text>
  <text x="58" y="12" font-size="8" fill="#666">C1</text>
  <text x="122" y="55" font-size="8" fill="#666">R2</text>
  <text x="78" y="15" font-size="8" fill="#666">C2</text>
  <text x="5" y="25" font-size="9" fill="#555">Vin</text>
  <text x="158" y="42" font-size="9" fill="#555">Vout</text>
</svg>
